<svg xmlns="http://www.w3.org/2000/svg" xmlns:xlink="http://www.w3.org/1999/xlink" width="375pt" height="374.999991pt" viewBox="0 0 375 374.999991" version="1.2">
<defs>
<clipPath id="clip1">
  <path d="M 112.5 193 L 182 193 L 182 262.5 L 112.5 262.5 Z M 112.5 193 "/>
</clipPath>
</defs>
<g id="surface1">
<rect x="0" y="0" width="375" height="374.999991" style="fill:rgb(100%,100%,100%);fill-opacity:1;stroke:none;"/>
<rect x="0" y="0" width="375" height="374.999991" style="fill:rgb(100%,100%,100%);fill-opacity:1;stroke:none;"/>
<rect x="0" y="0" width="375" height="374.999991" style="fill:rgb(100%,100%,100%);fill-opacity:1;stroke:none;"/>
<g clip-path="url(#clip1)" clip-rule="nonzero">
<path style=" stroke:none;fill-rule:nonzero;fill:rgb(0%,0%,0%);fill-opacity:1;" d="M 175.476562 256.773438 L 118.226562 256.773438 L 118.226562 199.523438 L 152.578125 199.523438 L 152.578125 193.796875 L 118.226562 193.796875 C 115.066406 193.796875 112.5 196.363281 112.5 199.523438 L 112.5 256.773438 C 112.5 259.933594 115.066406 262.5 118.226562 262.5 L 175.476562 262.5 C 178.636719 262.5 181.203125 259.933594 181.203125 256.773438 L 181.203125 222.421875 L 175.476562 222.421875 Z M 175.476562 256.773438 "/>
</g>
<path style=" stroke:none;fill-rule:nonzero;fill:rgb(0%,0%,0%);fill-opacity:1;" d="M 135.402344 239.691406 L 147.453125 239.691406 L 176.664062 210.480469 L 164.519531 198.335938 L 135.402344 227.457031 Z M 135.402344 239.691406 "/>
<path style=" stroke:none;fill-rule:nonzero;fill:rgb(0%,0%,0%);fill-opacity:1;" d="M 185.25 193.796875 L 181.203125 189.75 C 178.964844 187.511719 175.339844 187.511719 173.105469 189.75 L 168.566406 194.289062 L 180.710938 206.433594 L 185.25 201.894531 C 187.488281 199.65625 187.488281 196.03125 185.25 193.796875 Z M 185.25 193.796875 "/>
</g>
</svg>